<svg width="358" height="275" viewBox="0 0 358 275" fill="none" xmlns="http://www.w3.org/2000/svg">
<rect x="0.5" y="0.5" width="357" height="273.707" rx="4.5" stroke="#8A38F5" stroke-dasharray="10 5"/>
<path d="M35.8337 30.8132V27.884C35.8337 26.5539 35.8337 25.8888 35.5748 25.3808C35.3471 24.9339 34.9838 24.5705 34.5369 24.3428C34.0288 24.084 33.3638 24.084 32.0337 24.084H26.967C25.6369 24.084 24.9718 24.084 24.4638 24.3428C24.0169 24.5705 23.6536 24.9339 23.4259 25.3808C23.167 25.8888 23.167 26.5539 23.167 27.884V36.1173C23.167 37.4474 23.167 38.1125 23.4259 38.6205C23.6536 39.0674 24.0169 39.4308 24.4638 39.6585C24.9718 39.9173 25.6369 39.9173 26.967 39.9173H29.1045M37.417 39.9173L36.2295 38.7298M37.0212 36.7507C37.0212 38.2809 35.7806 39.5215 34.2503 39.5215C32.72 39.5215 31.4795 38.2809 31.4795 36.7507C31.4795 35.2204 32.72 33.9798 34.2503 33.9798C35.7806 33.9798 37.0212 35.2204 37.0212 36.7507Z" stroke="black" stroke-width="1.5" stroke-linecap="round" stroke-linejoin="round"/>
<path d="M47.4375 29.75C47.4375 31.8438 48.6172 34.125 50.7969 35.1562L49.8281 36.4688C48.2969 35.7656 47.1953 34.3594 46.6016 32.7109C45.9844 34.4922 44.8203 35.9922 43.2031 36.7188L42.25 35.375C44.4766 34.375 45.7188 31.9688 45.7188 29.75V29.0156H42.7031V27.625H45.7188V25.5625H47.4531V27.625H50.4219V29.0156H47.4375V29.75ZM51.7969 39.3906V25.2656H53.5312V30.8594H55.7031V32.3125H53.5312V39.3906H51.7969ZM69.4219 27.2812V28.7188H67.4375V30.25H69.4219V31.7031H67.4375V33.8125H65.7031V25.2812H67.4375V27.2812H69.4219ZM56.8281 27.5156V26.1406H63.2812V30.2031H58.5781V31.6875C60.9688 31.6719 62.625 31.5859 64.5469 31.2656L64.7344 32.6562C62.6328 33.0391 60.7891 33.1172 58 33.1094H56.8438V28.8906H61.5781V27.5156H56.8281ZM58.0469 36.75C58.0391 35.0859 59.8672 34.0859 62.8281 34.0781C65.7422 34.0859 67.5703 35.0859 67.5781 36.75C67.5703 38.4062 65.7422 39.3594 62.8281 39.3594C59.8672 39.3594 58.0391 38.4062 58.0469 36.75ZM59.75 36.75C59.7422 37.5938 60.8516 38.0547 62.8281 38.0469C64.7734 38.0547 65.8594 37.5938 65.8594 36.75C65.8594 35.8984 64.7734 35.4375 62.8281 35.4375C60.8516 35.4375 59.7422 35.8984 59.75 36.75ZM81.3594 25.8438V30.75H77.4219V32.2344H83V33.6406H70.125V32.2344H75.6719V30.75H71.75V25.8438H81.3594ZM71.5469 36.2031V34.8281H81.4219V39.3906H79.6875V36.2031H71.5469ZM73.4375 29.375H79.6406V27.2031H73.4375V29.375ZM96.8438 32.9062V34.3125H83.9375V32.9062H89.5312V31.7344H85.5781V27.9844H93.5156V26.9375H85.5312V25.5781H95.25V29.25H87.2969V30.375H95.5312V31.7344H91.25V32.9062H96.8438ZM85.375 36.5781V35.2031H95.3281V39.2969H93.5781V36.5781H85.375Z" fill="black"/>
<path d="M135.125 32H131.642C131.198 32 130.977 32 130.807 32.0863C130.658 32.1622 130.537 32.2833 130.461 32.4323C130.375 32.6016 130.375 32.8233 130.375 33.2667V37.8583C130.375 38.3017 130.375 38.5234 130.461 38.6927C130.537 38.8417 130.658 38.9628 130.807 39.0387C130.977 39.125 131.198 39.125 131.642 39.125H135.125M135.125 39.125H139.875M135.125 39.125L135.125 29.3083C135.125 28.865 135.125 28.6433 135.211 28.4739C135.287 28.325 135.408 28.2039 135.557 28.128C135.727 28.0417 135.948 28.0417 136.392 28.0417H138.608C139.052 28.0417 139.273 28.0417 139.443 28.128C139.592 28.2039 139.713 28.325 139.789 28.4739C139.875 28.6433 139.875 28.865 139.875 29.3083V39.125M139.875 39.125H143.358C143.802 39.125 144.023 39.125 144.193 39.0387C144.342 38.9628 144.463 38.8417 144.539 38.6927C144.625 38.5234 144.625 38.3017 144.625 37.8583V26.1417C144.625 25.6983 144.625 25.4766 144.539 25.3073C144.463 25.1583 144.342 25.0372 144.193 24.9613C144.023 24.875 143.802 24.875 143.358 24.875H141.142C140.698 24.875 140.477 24.875 140.307 24.9613C140.158 25.0372 140.037 25.1583 139.961 25.3073C139.875 25.4766 139.875 25.6983 139.875 26.1417V28.8333" stroke="#909090" stroke-width="1.5" stroke-linecap="round" stroke-linejoin="round"/>
<path d="M162.297 25.2656V39.3906H160.562V32.2031H157.578V30.7812H160.562V25.2656H162.297ZM150.375 35.4844C154.031 33.6875 155.602 31.3047 155.891 28.1406H151.031V26.7656H157.641C157.625 30.9375 156.148 34.4453 151.281 36.8438L150.375 35.4844ZM170.047 26.7031V31.9688H166.391V34.7188C167.82 34.7031 169.188 34.6484 170.766 34.3906L170.891 35.7969C168.984 36.1172 167.438 36.1641 165.688 36.1719H164.719V30.5625H168.375V28.1094H164.703V26.7031H170.047ZM171.609 38.6719V25.5312H173.203V30.6875H174.797V25.2656H176.453V39.3906H174.797V32.0938H173.203V38.6719H171.609Z" fill="#909090"/>
<path d="M224.398 27.7565C224.289 27.6002 224.143 27.4725 223.974 27.3843C223.804 27.2962 223.616 27.2501 223.425 27.25H220.469V25.4688C220.468 25.1539 220.343 24.8521 220.121 24.6294C219.898 24.4068 219.596 24.2816 219.281 24.2812H209.781C209.466 24.2816 209.165 24.4068 208.942 24.6294C208.719 24.8521 208.594 25.1539 208.594 25.4688V37.6406H210.564C210.668 38.2234 210.974 38.7508 211.428 39.1307C211.882 39.5106 212.455 39.7188 213.047 39.7188C213.639 39.7188 214.212 39.5106 214.666 39.1307C215.12 38.7508 215.426 38.2234 215.53 37.6406H219.47C219.574 38.2234 219.88 38.7508 220.334 39.1307C220.788 39.5106 221.361 39.7188 221.953 39.7188C222.545 39.7188 223.118 39.5106 223.572 39.1307C224.026 38.7508 224.332 38.2234 224.436 37.6406H226.406V30.9061C226.407 30.7233 226.35 30.5449 226.245 30.3954L224.398 27.7565ZM209.781 25.4688H219.281V32H209.781L209.781 25.4688ZM213.047 38.5312C212.783 38.5312 212.524 38.4529 212.305 38.3061C212.085 38.1593 211.914 37.9506 211.813 37.7066C211.712 37.4624 211.685 37.1938 211.737 36.9347C211.788 36.6755 211.915 36.4375 212.102 36.2507C212.289 36.0639 212.527 35.9366 212.786 35.885C213.045 35.8335 213.314 35.8599 213.558 35.9611C213.802 36.0622 214.011 36.2334 214.158 36.4531C214.304 36.6728 214.383 36.9311 214.383 37.1953C214.382 37.5495 214.242 37.889 213.991 38.1395C213.741 38.39 213.401 38.5309 213.047 38.5312ZM221.953 38.5312C221.689 38.5312 221.431 38.4529 221.211 38.3061C220.991 38.1593 220.82 37.9506 220.719 37.7066C220.618 37.4624 220.591 37.1938 220.643 36.9347C220.694 36.6755 220.822 36.4375 221.009 36.2507C221.195 36.0639 221.433 35.9366 221.693 35.885C221.952 35.8335 222.22 35.8599 222.464 35.9611C222.708 36.0622 222.917 36.2334 223.064 36.4531C223.211 36.6728 223.289 36.9311 223.289 37.1953C223.289 37.5495 223.148 37.889 222.897 38.1395C222.647 38.39 222.307 38.5309 221.953 38.5312ZM225.219 36.4531H224.365C224.206 35.9373 223.886 35.4859 223.452 35.1653C223.018 34.8447 222.493 34.6716 221.953 34.6716C221.413 34.6716 220.888 34.8447 220.454 35.1653C220.02 35.4859 219.7 35.9373 219.541 36.4531H215.459C215.3 35.9373 214.98 35.4859 214.546 35.1653C214.112 34.8447 213.587 34.6716 213.047 34.6716C212.507 34.6716 211.982 34.8447 211.548 35.1653C211.114 35.4859 210.794 35.9373 210.635 36.4531H209.781V33.1875H225.219V36.4531ZM225.219 32H220.469V28.4375H223.425L225.219 30.9997V32Z" fill="#909090"/>
<path d="M237.656 26.2188V27.6094H232.781V29H237.375V30.3438H232.781V31.8125C235.227 31.7969 236.742 31.7188 238.469 31.4062L238.656 32.7969C236.742 33.125 235.055 33.1953 232.172 33.1875H231.047V26.2188H237.656ZM232.203 35.8281V34.4375H241.609V39.3906H239.875V35.8281H232.203ZM239.875 33.8125V25.2656H241.609V28.8125H243.578V30.2812H241.609V33.8125H239.875ZM251.578 30.25V32.0938H257.172V33.4844H244.297V32.0938H249.859V30.25H251.578ZM245 29.6875C247.914 29.3203 249.828 27.7188 249.828 26.0312V25.5H251.594V26.0312C251.594 27.7578 253.492 29.3203 256.438 29.6875L255.766 31.0469C253.453 30.6953 251.602 29.6484 250.703 28.1641C249.797 29.6406 247.953 30.6953 245.625 31.0469L245 29.6875ZM245.797 36.8906C245.797 35.3047 247.633 34.3984 250.719 34.4062C253.781 34.3984 255.602 35.3047 255.609 36.8906C255.602 38.4922 253.781 39.375 250.719 39.375C247.633 39.375 245.797 38.4922 245.797 36.8906ZM247.562 36.8906C247.555 37.6641 248.641 38.0625 250.719 38.0625C252.758 38.0625 253.859 37.6641 253.875 36.8906C253.859 36.1172 252.758 35.7344 250.719 35.7344C248.641 35.7344 247.555 36.1172 247.562 36.8906Z" fill="#909090"/>
<path d="M298.291 26.4583C298.291 27.3328 296.342 28.0417 293.937 28.0417C291.532 28.0417 289.583 27.3328 289.583 26.4583M298.291 26.4583C298.291 25.5839 296.342 24.875 293.937 24.875C291.532 24.875 289.583 25.5839 289.583 26.4583M298.291 26.4583V27.6458M289.583 26.4583V35.9583C289.583 36.8328 291.532 37.5417 293.937 37.5417M293.937 31.2083C293.804 31.2083 293.672 31.2062 293.541 31.2019C291.322 31.1292 289.583 30.4509 289.583 29.625M293.937 34.375C291.532 34.375 289.583 33.6661 289.583 32.7917M305.416 31.6042C305.416 32.4786 303.467 33.1875 301.062 33.1875C298.657 33.1875 296.708 32.4786 296.708 31.6042M305.416 31.6042C305.416 30.7297 303.467 30.0208 301.062 30.0208C298.657 30.0208 296.708 30.7297 296.708 31.6042M305.416 31.6042V37.5417C305.416 38.4161 303.467 39.125 301.062 39.125C298.657 39.125 296.708 38.4161 296.708 37.5417V31.6042M305.416 34.5729C305.416 35.4474 303.467 36.1563 301.062 36.1563C298.657 36.1563 296.708 35.4474 296.708 34.5729" stroke="#909090" stroke-width="1.5" stroke-linecap="round" stroke-linejoin="round"/>
<path d="M322.297 25.2656V33.6562H320.562V30.2031H318.156V28.7812H320.562V25.2656H322.297ZM310.422 32.25C312.695 31.4688 313.891 29.5703 313.891 27.7031V27.5938H310.953V26.1875H318.578V27.5938H315.656V27.6875C315.656 29.4062 316.797 31.1406 318.984 31.875L318.109 33.25C316.539 32.7188 315.43 31.6406 314.805 30.3125C314.188 31.8125 313.008 33.0312 311.328 33.625L310.422 32.25ZM312.719 36.7031C312.703 35.0078 314.539 34.0156 317.516 34.0156C320.508 34.0156 322.336 35.0078 322.344 36.7031C322.336 38.3984 320.508 39.3828 317.516 39.3906C314.539 39.3828 312.703 38.3984 312.719 36.7031ZM314.438 36.7031C314.43 37.5781 315.555 38.0547 317.516 38.0469C319.492 38.0547 320.609 37.5781 320.609 36.7031C320.609 35.8203 319.492 35.3438 317.516 35.3438C315.555 35.3438 314.43 35.8203 314.438 36.7031ZM329.359 27.7656C329.344 29.6172 330.516 31.3906 332.734 32.1094L331.828 33.4844C330.266 32.9531 329.148 31.8906 328.531 30.5312C327.906 32.0312 326.742 33.2031 325.094 33.7812L324.125 32.4062C326.445 31.6484 327.609 29.7578 327.609 27.75V26.1406H329.359V27.7656ZM326.391 39.1094V34.625H328.172V37.7031H336V39.1094H326.391ZM333.703 35.6406V25.2656H335.438V29.4375H337.406V30.9062H335.438V35.6406H333.703Z" fill="#909090"/>
<line x1="21" y1="49.9414" x2="100.049" y2="49.9414" stroke="black" stroke-width="2" stroke-linecap="round"/>
<path d="M35.8337 81.7546V78.8254C35.8337 77.4953 35.8337 76.8302 35.5748 76.3222C35.3471 75.8753 34.9838 75.5119 34.5369 75.2843C34.0288 75.0254 33.3638 75.0254 32.0337 75.0254H26.967C25.6369 75.0254 24.9718 75.0254 24.4638 75.2843C24.0169 75.5119 23.6536 75.8753 23.4259 76.3222C23.167 76.8302 23.167 77.4953 23.167 78.8254V87.0587C23.167 88.3888 23.167 89.0539 23.4259 89.562C23.6536 90.0088 24.0169 90.3722 24.4638 90.5999C24.9718 90.8587 25.6369 90.8587 26.967 90.8587H29.1045M37.417 90.8587L36.2295 89.6712M37.0212 87.6921C37.0212 89.2223 35.7806 90.4629 34.2503 90.4629C32.72 90.4629 31.4795 89.2223 31.4795 87.6921C31.4795 86.1618 32.72 84.9212 34.2503 84.9212C35.7806 84.9212 37.0212 86.1618 37.0212 87.6921Z" stroke="#909090" stroke-width="1.5" stroke-linecap="round" stroke-linejoin="round"/>
<path d="M47.4375 80.6914C47.4375 82.7852 48.6172 85.0664 50.7969 86.0977L49.8281 87.4102C48.2969 86.707 47.1953 85.3008 46.6016 83.6523C45.9844 85.4336 44.8203 86.9336 43.2031 87.6602L42.25 86.3164C44.4766 85.3164 45.7188 82.9102 45.7188 80.6914V79.957H42.7031V78.5664H45.7188V76.5039H47.4531V78.5664H50.4219V79.957H47.4375V80.6914ZM51.7969 90.332V76.207H53.5312V81.8008H55.7031V83.2539H53.5312V90.332H51.7969ZM69.4219 78.2227V79.6602H67.4375V81.1914H69.4219V82.6445H67.4375V84.7539H65.7031V76.2227H67.4375V78.2227H69.4219ZM56.8281 78.457V77.082H63.2812V81.1445H58.5781V82.6289C60.9688 82.6133 62.625 82.5273 64.5469 82.207L64.7344 83.5977C62.6328 83.9805 60.7891 84.0586 58 84.0508H56.8438V79.832H61.5781V78.457H56.8281ZM58.0469 87.6914C58.0391 86.0273 59.8672 85.0273 62.8281 85.0195C65.7422 85.0273 67.5703 86.0273 67.5781 87.6914C67.5703 89.3477 65.7422 90.3008 62.8281 90.3008C59.8672 90.3008 58.0391 89.3477 58.0469 87.6914ZM59.75 87.6914C59.7422 88.5352 60.8516 88.9961 62.8281 88.9883C64.7734 88.9961 65.8594 88.5352 65.8594 87.6914C65.8594 86.8398 64.7734 86.3789 62.8281 86.3789C60.8516 86.3789 59.7422 86.8398 59.75 87.6914ZM81.3594 76.7852V81.6914H77.4219V83.1758H83V84.582H70.125V83.1758H75.6719V81.6914H71.75V76.7852H81.3594ZM71.5469 87.1445V85.7695H81.4219V90.332H79.6875V87.1445H71.5469ZM73.4375 80.3164H79.6406V78.1445H73.4375V80.3164ZM96.8438 83.8477V85.2539H83.9375V83.8477H89.5312V82.6758H85.5781V78.9258H93.5156V77.8789H85.5312V76.5195H95.25V80.1914H87.2969V81.3164H95.5312V82.6758H91.25V83.8477H96.8438ZM85.375 87.5195V86.1445H95.3281V90.2383H93.5781V87.5195H85.375Z" fill="#909090"/>
<path d="M135.125 82.9414H131.642C131.198 82.9414 130.977 82.9414 130.807 83.0277C130.658 83.1036 130.537 83.2247 130.461 83.3737C130.375 83.543 130.375 83.7647 130.375 84.2081V88.7997C130.375 89.2431 130.375 89.4648 130.461 89.6341C130.537 89.7831 130.658 89.9042 130.807 89.9801C130.977 90.0664 131.198 90.0664 131.642 90.0664H135.125M135.125 90.0664H139.875M135.125 90.0664L135.125 80.2497C135.125 79.8064 135.125 79.5847 135.211 79.4153C135.287 79.2664 135.408 79.1453 135.557 79.0694C135.727 78.9831 135.948 78.9831 136.392 78.9831H138.608C139.052 78.9831 139.273 78.9831 139.443 79.0694C139.592 79.1453 139.713 79.2664 139.789 79.4153C139.875 79.5847 139.875 79.8064 139.875 80.2497V90.0664M139.875 90.0664H143.358C143.802 90.0664 144.023 90.0664 144.193 89.9801C144.342 89.9042 144.463 89.7831 144.539 89.6341C144.625 89.4648 144.625 89.2431 144.625 88.7997V77.0831C144.625 76.6397 144.625 76.418 144.539 76.2487C144.463 76.0997 144.342 75.9786 144.193 75.9027C144.023 75.8164 143.802 75.8164 143.358 75.8164H141.142C140.698 75.8164 140.477 75.8164 140.307 75.9027C140.158 75.9786 140.037 76.0997 139.961 76.2487C139.875 76.418 139.875 76.6397 139.875 77.0831V79.7747" stroke="black" stroke-width="1.5" stroke-linecap="round" stroke-linejoin="round"/>
<path d="M162.297 76.207V90.332H160.562V83.1445H157.578V81.7227H160.562V76.207H162.297ZM150.375 86.4258C154.031 84.6289 155.602 82.2461 155.891 79.082H151.031V77.707H157.641C157.625 81.8789 156.148 85.3867 151.281 87.7852L150.375 86.4258ZM170.047 77.6445V82.9102H166.391V85.6602C167.82 85.6445 169.188 85.5898 170.766 85.332L170.891 86.7383C168.984 87.0586 167.438 87.1055 165.688 87.1133H164.719V81.5039H168.375V79.0508H164.703V77.6445H170.047ZM171.609 89.6133V76.4727H173.203V81.6289H174.797V76.207H176.453V90.332H174.797V83.0352H173.203V89.6133H171.609Z" fill="black"/>
<path d="M224.398 78.6979C224.289 78.5416 224.143 78.4139 223.974 78.3257C223.804 78.2376 223.616 78.1915 223.425 78.1914H220.469V76.4102C220.468 76.0953 220.343 75.7935 220.121 75.5709C219.898 75.3482 219.596 75.223 219.281 75.2227H209.781C209.466 75.223 209.165 75.3482 208.942 75.5709C208.719 75.7935 208.594 76.0953 208.594 76.4102V88.582H210.564C210.668 89.1648 210.974 89.6922 211.428 90.0721C211.882 90.452 212.455 90.6602 213.047 90.6602C213.639 90.6602 214.212 90.452 214.666 90.0721C215.12 89.6922 215.426 89.1648 215.53 88.582H219.47C219.574 89.1648 219.88 89.6922 220.334 90.0721C220.788 90.452 221.361 90.6602 221.953 90.6602C222.545 90.6602 223.118 90.452 223.572 90.0721C224.026 89.6922 224.332 89.1648 224.436 88.582H226.406V81.8475C226.407 81.6647 226.35 81.4863 226.245 81.3368L224.398 78.6979ZM209.781 76.4102H219.281V82.9414H209.781L209.781 76.4102ZM213.047 89.4727C212.783 89.4727 212.524 89.3943 212.305 89.2475C212.085 89.1007 211.914 88.892 211.813 88.648C211.712 88.4038 211.685 88.1352 211.737 87.8761C211.788 87.6169 211.915 87.3789 212.102 87.1921C212.289 87.0053 212.527 86.878 212.786 86.8264C213.045 86.7749 213.314 86.8013 213.558 86.9025C213.802 87.0036 214.011 87.1748 214.158 87.3945C214.304 87.6142 214.383 87.8725 214.383 88.1367C214.382 88.4909 214.242 88.8305 213.991 89.0809C213.741 89.3314 213.401 89.4723 213.047 89.4727ZM221.953 89.4727C221.689 89.4727 221.431 89.3943 221.211 89.2475C220.991 89.1007 220.82 88.892 220.719 88.648C220.618 88.4038 220.591 88.1352 220.643 87.8761C220.694 87.6169 220.822 87.3789 221.009 87.1921C221.195 87.0053 221.433 86.878 221.693 86.8264C221.952 86.7749 222.22 86.8013 222.464 86.9025C222.708 87.0036 222.917 87.1748 223.064 87.3945C223.211 87.6142 223.289 87.8725 223.289 88.1367C223.289 88.4909 223.148 88.8305 222.897 89.0809C222.647 89.3314 222.307 89.4723 221.953 89.4727ZM225.219 87.3945H224.365C224.206 86.8787 223.886 86.4274 223.452 86.1067C223.018 85.7861 222.493 85.613 221.953 85.613C221.413 85.613 220.888 85.7861 220.454 86.1067C220.02 86.4274 219.7 86.8787 219.541 87.3945H215.459C215.3 86.8787 214.98 86.4274 214.546 86.1067C214.112 85.7861 213.587 85.613 213.047 85.613C212.507 85.613 211.982 85.7861 211.548 86.1067C211.114 86.4274 210.794 86.8787 210.635 87.3945H209.781V84.1289H225.219V87.3945ZM225.219 82.9414H220.469V79.3789H223.425L225.219 81.9411V82.9414Z" fill="#909090"/>
<path d="M237.656 77.1602V78.5508H232.781V79.9414H237.375V81.2852H232.781V82.7539C235.227 82.7383 236.742 82.6602 238.469 82.3477L238.656 83.7383C236.742 84.0664 235.055 84.1367 232.172 84.1289H231.047V77.1602H237.656ZM232.203 86.7695V85.3789H241.609V90.332H239.875V86.7695H232.203ZM239.875 84.7539V76.207H241.609V79.7539H243.578V81.2227H241.609V84.7539H239.875ZM251.578 81.1914V83.0352H257.172V84.4258H244.297V83.0352H249.859V81.1914H251.578ZM245 80.6289C247.914 80.2617 249.828 78.6602 249.828 76.9727V76.4414H251.594V76.9727C251.594 78.6992 253.492 80.2617 256.438 80.6289L255.766 81.9883C253.453 81.6367 251.602 80.5898 250.703 79.1055C249.797 80.582 247.953 81.6367 245.625 81.9883L245 80.6289ZM245.797 87.832C245.797 86.2461 247.633 85.3398 250.719 85.3477C253.781 85.3398 255.602 86.2461 255.609 87.832C255.602 89.4336 253.781 90.3164 250.719 90.3164C247.633 90.3164 245.797 89.4336 245.797 87.832ZM247.562 87.832C247.555 88.6055 248.641 89.0039 250.719 89.0039C252.758 89.0039 253.859 88.6055 253.875 87.832C253.859 87.0586 252.758 86.6758 250.719 86.6758C248.641 86.6758 247.555 87.0586 247.562 87.832Z" fill="#909090"/>
<path d="M298.291 77.3997C298.291 78.2742 296.342 78.9831 293.937 78.9831C291.532 78.9831 289.583 78.2742 289.583 77.3997M298.291 77.3997C298.291 76.5253 296.342 75.8164 293.937 75.8164C291.532 75.8164 289.583 76.5253 289.583 77.3997M298.291 77.3997V78.5872M289.583 77.3997V86.8997C289.583 87.7742 291.532 88.4831 293.937 88.4831M293.937 82.1497C293.804 82.1497 293.672 82.1476 293.541 82.1433C291.322 82.0706 289.583 81.3923 289.583 80.5664M293.937 85.3164C291.532 85.3164 289.583 84.6075 289.583 83.7331M305.416 82.5456C305.416 83.42 303.467 84.1289 301.062 84.1289C298.657 84.1289 296.708 83.42 296.708 82.5456M305.416 82.5456C305.416 81.6711 303.467 80.9622 301.062 80.9622C298.657 80.9622 296.708 81.6711 296.708 82.5456M305.416 82.5456V88.4831C305.416 89.3575 303.467 90.0664 301.062 90.0664C298.657 90.0664 296.708 89.3575 296.708 88.4831V82.5456M305.416 85.5143C305.416 86.3888 303.467 87.0977 301.062 87.0977C298.657 87.0977 296.708 86.3888 296.708 85.5143" stroke="#909090" stroke-width="1.5" stroke-linecap="round" stroke-linejoin="round"/>
<path d="M322.297 76.207V84.5977H320.562V81.1445H318.156V79.7227H320.562V76.207H322.297ZM310.422 83.1914C312.695 82.4102 313.891 80.5117 313.891 78.6445V78.5352H310.953V77.1289H318.578V78.5352H315.656V78.6289C315.656 80.3477 316.797 82.082 318.984 82.8164L318.109 84.1914C316.539 83.6602 315.43 82.582 314.805 81.2539C314.188 82.7539 313.008 83.9727 311.328 84.5664L310.422 83.1914ZM312.719 87.6445C312.703 85.9492 314.539 84.957 317.516 84.957C320.508 84.957 322.336 85.9492 322.344 87.6445C322.336 89.3398 320.508 90.3242 317.516 90.332C314.539 90.3242 312.703 89.3398 312.719 87.6445ZM314.438 87.6445C314.43 88.5195 315.555 88.9961 317.516 88.9883C319.492 88.9961 320.609 88.5195 320.609 87.6445C320.609 86.7617 319.492 86.2852 317.516 86.2852C315.555 86.2852 314.43 86.7617 314.438 87.6445ZM329.359 78.707C329.344 80.5586 330.516 82.332 332.734 83.0508L331.828 84.4258C330.266 83.8945 329.148 82.832 328.531 81.4727C327.906 82.9727 326.742 84.1445 325.094 84.7227L324.125 83.3477C326.445 82.5898 327.609 80.6992 327.609 78.6914V77.082H329.359V78.707ZM326.391 90.0508V85.5664H328.172V88.6445H336V90.0508H326.391ZM333.703 86.582V76.207H335.438V80.3789H337.406V81.8477H335.438V86.582H333.703Z" fill="#909090"/>
<line x1="121" y1="100.883" x2="190" y2="100.883" stroke="black" stroke-width="2" stroke-linecap="round"/>
<path d="M35.8337 132.696V129.767C35.8337 128.437 35.8337 127.772 35.5748 127.264C35.3471 126.817 34.9838 126.453 34.5369 126.226C34.0288 125.967 33.3638 125.967 32.0337 125.967H26.967C25.6369 125.967 24.9718 125.967 24.4638 126.226C24.0169 126.453 23.6536 126.817 23.4259 127.264C23.167 127.772 23.167 128.437 23.167 129.767V138C23.167 139.33 23.167 139.995 23.4259 140.503C23.6536 140.95 24.0169 141.314 24.4638 141.541C24.9718 141.8 25.6369 141.8 26.967 141.8H29.1045M37.417 141.8L36.2295 140.613M37.0212 138.633C37.0212 140.164 35.7806 141.404 34.2503 141.404C32.72 141.404 31.4795 140.164 31.4795 138.633C31.4795 137.103 32.72 135.863 34.2503 135.863C35.7806 135.863 37.0212 137.103 37.0212 138.633Z" stroke="#909090" stroke-width="1.5" stroke-linecap="round" stroke-linejoin="round"/>
<path d="M47.4375 131.633C47.4375 133.727 48.6172 136.008 50.7969 137.039L49.8281 138.352C48.2969 137.648 47.1953 136.242 46.6016 134.594C45.9844 136.375 44.8203 137.875 43.2031 138.602L42.25 137.258C44.4766 136.258 45.7188 133.852 45.7188 131.633V130.898H42.7031V129.508H45.7188V127.445H47.4531V129.508H50.4219V130.898H47.4375V131.633ZM51.7969 141.273V127.148H53.5312V132.742H55.7031V134.195H53.5312V141.273H51.7969ZM69.4219 129.164V130.602H67.4375V132.133H69.4219V133.586H67.4375V135.695H65.7031V127.164H67.4375V129.164H69.4219ZM56.8281 129.398V128.023H63.2812V132.086H58.5781V133.57C60.9688 133.555 62.625 133.469 64.5469 133.148L64.7344 134.539C62.6328 134.922 60.7891 135 58 134.992H56.8438V130.773H61.5781V129.398H56.8281ZM58.0469 138.633C58.0391 136.969 59.8672 135.969 62.8281 135.961C65.7422 135.969 67.5703 136.969 67.5781 138.633C67.5703 140.289 65.7422 141.242 62.8281 141.242C59.8672 141.242 58.0391 140.289 58.0469 138.633ZM59.75 138.633C59.7422 139.477 60.8516 139.938 62.8281 139.93C64.7734 139.938 65.8594 139.477 65.8594 138.633C65.8594 137.781 64.7734 137.32 62.8281 137.32C60.8516 137.32 59.7422 137.781 59.75 138.633ZM81.3594 127.727V132.633H77.4219V134.117H83V135.523H70.125V134.117H75.6719V132.633H71.75V127.727H81.3594ZM71.5469 138.086V136.711H81.4219V141.273H79.6875V138.086H71.5469ZM73.4375 131.258H79.6406V129.086H73.4375V131.258ZM96.8438 134.789V136.195H83.9375V134.789H89.5312V133.617H85.5781V129.867H93.5156V128.82H85.5312V127.461H95.25V131.133H87.2969V132.258H95.5312V133.617H91.25V134.789H96.8438ZM85.375 138.461V137.086H95.3281V141.18H93.5781V138.461H85.375Z" fill="#909090"/>
<path d="M135.125 133.883H131.642C131.198 133.883 130.977 133.883 130.807 133.969C130.658 134.045 130.537 134.166 130.461 134.315C130.375 134.484 130.375 134.706 130.375 135.149V139.741C130.375 140.185 130.375 140.406 130.461 140.576C130.537 140.725 130.658 140.846 130.807 140.922C130.977 141.008 131.198 141.008 131.642 141.008H135.125M135.125 141.008H139.875M135.125 141.008L135.125 131.191C135.125 130.748 135.125 130.526 135.211 130.357C135.287 130.208 135.408 130.087 135.557 130.011C135.727 129.924 135.948 129.924 136.392 129.924H138.608C139.052 129.924 139.273 129.924 139.443 130.011C139.592 130.087 139.713 130.208 139.789 130.357C139.875 130.526 139.875 130.748 139.875 131.191V141.008M139.875 141.008H143.358C143.802 141.008 144.023 141.008 144.193 140.922C144.342 140.846 144.463 140.725 144.539 140.576C144.625 140.406 144.625 140.185 144.625 139.741V128.024C144.625 127.581 144.625 127.359 144.539 127.19C144.463 127.041 144.342 126.92 144.193 126.844C144.023 126.758 143.802 126.758 143.358 126.758H141.142C140.698 126.758 140.477 126.758 140.307 126.844C140.158 126.92 140.037 127.041 139.961 127.19C139.875 127.359 139.875 127.581 139.875 128.024V130.716" stroke="#909090" stroke-width="1.5" stroke-linecap="round" stroke-linejoin="round"/>
<path d="M162.297 127.148V141.273H160.562V134.086H157.578V132.664H160.562V127.148H162.297ZM150.375 137.367C154.031 135.57 155.602 133.188 155.891 130.023H151.031V128.648H157.641C157.625 132.82 156.148 136.328 151.281 138.727L150.375 137.367ZM170.047 128.586V133.852H166.391V136.602C167.82 136.586 169.188 136.531 170.766 136.273L170.891 137.68C168.984 138 167.438 138.047 165.688 138.055H164.719V132.445H168.375V129.992H164.703V128.586H170.047ZM171.609 140.555V127.414H173.203V132.57H174.797V127.148H176.453V141.273H174.797V133.977H173.203V140.555H171.609Z" fill="#909090"/>
<path d="M224.398 129.639C224.289 129.483 224.143 129.355 223.974 129.267C223.804 129.179 223.616 129.133 223.425 129.133H220.469V127.352C220.468 127.037 220.343 126.735 220.121 126.512C219.898 126.29 219.596 126.164 219.281 126.164H209.781C209.466 126.164 209.165 126.29 208.942 126.512C208.719 126.735 208.594 127.037 208.594 127.352V139.523H210.564C210.668 140.106 210.974 140.634 211.428 141.014C211.882 141.393 212.455 141.602 213.047 141.602C213.639 141.602 214.212 141.393 214.666 141.014C215.12 140.634 215.426 140.106 215.53 139.523H219.47C219.574 140.106 219.88 140.634 220.334 141.014C220.788 141.393 221.361 141.602 221.953 141.602C222.545 141.602 223.118 141.393 223.572 141.014C224.026 140.634 224.332 140.106 224.436 139.523H226.406V132.789C226.407 132.606 226.35 132.428 226.245 132.278L224.398 129.639ZM209.781 127.352H219.281V133.883H209.781L209.781 127.352ZM213.047 140.414C212.783 140.414 212.524 140.336 212.305 140.189C212.085 140.042 211.914 139.833 211.813 139.589C211.712 139.345 211.685 139.077 211.737 138.818C211.788 138.558 211.915 138.32 212.102 138.134C212.289 137.947 212.527 137.819 212.786 137.768C213.045 137.716 213.314 137.743 213.558 137.844C213.802 137.945 214.011 138.116 214.158 138.336C214.304 138.556 214.383 138.814 214.383 139.078C214.382 139.432 214.242 139.772 213.991 140.022C213.741 140.273 213.401 140.414 213.047 140.414ZM221.953 140.414C221.689 140.414 221.431 140.336 221.211 140.189C220.991 140.042 220.82 139.833 220.719 139.589C220.618 139.345 220.591 139.077 220.643 138.818C220.694 138.558 220.822 138.32 221.009 138.134C221.195 137.947 221.433 137.819 221.693 137.768C221.952 137.716 222.22 137.743 222.464 137.844C222.708 137.945 222.917 138.116 223.064 138.336C223.211 138.556 223.289 138.814 223.289 139.078C223.289 139.432 223.148 139.772 222.897 140.022C222.647 140.273 222.307 140.414 221.953 140.414ZM225.219 138.336H224.365C224.206 137.82 223.886 137.369 223.452 137.048C223.018 136.728 222.493 136.554 221.953 136.554C221.413 136.554 220.888 136.728 220.454 137.048C220.02 137.369 219.7 137.82 219.541 138.336H215.459C215.3 137.82 214.98 137.369 214.546 137.048C214.112 136.728 213.587 136.554 213.047 136.554C212.507 136.554 211.982 136.728 211.548 137.048C211.114 137.369 210.794 137.82 210.635 138.336H209.781V135.07H225.219V138.336ZM225.219 133.883H220.469V130.32H223.425L225.219 132.882V133.883Z" fill="black"/>
<path d="M237.656 128.102V129.492H232.781V130.883H237.375V132.227H232.781V133.695C235.227 133.68 236.742 133.602 238.469 133.289L238.656 134.68C236.742 135.008 235.055 135.078 232.172 135.07H231.047V128.102H237.656ZM232.203 137.711V136.32H241.609V141.273H239.875V137.711H232.203ZM239.875 135.695V127.148H241.609V130.695H243.578V132.164H241.609V135.695H239.875ZM251.578 132.133V133.977H257.172V135.367H244.297V133.977H249.859V132.133H251.578ZM245 131.57C247.914 131.203 249.828 129.602 249.828 127.914V127.383H251.594V127.914C251.594 129.641 253.492 131.203 256.438 131.57L255.766 132.93C253.453 132.578 251.602 131.531 250.703 130.047C249.797 131.523 247.953 132.578 245.625 132.93L245 131.57ZM245.797 138.773C245.797 137.188 247.633 136.281 250.719 136.289C253.781 136.281 255.602 137.188 255.609 138.773C255.602 140.375 253.781 141.258 250.719 141.258C247.633 141.258 245.797 140.375 245.797 138.773ZM247.562 138.773C247.555 139.547 248.641 139.945 250.719 139.945C252.758 139.945 253.859 139.547 253.875 138.773C253.859 138 252.758 137.617 250.719 137.617C248.641 137.617 247.555 138 247.562 138.773Z" fill="black"/>
<path d="M298.291 128.341C298.291 129.216 296.342 129.924 293.937 129.924C291.532 129.924 289.583 129.216 289.583 128.341M298.291 128.341C298.291 127.467 296.342 126.758 293.937 126.758C291.532 126.758 289.583 127.467 289.583 128.341M298.291 128.341V129.529M289.583 128.341V137.841C289.583 138.716 291.532 139.424 293.937 139.424M293.937 133.091C293.804 133.091 293.672 133.089 293.541 133.085C291.322 133.012 289.583 132.334 289.583 131.508M293.937 136.258C291.532 136.258 289.583 135.549 289.583 134.674M305.416 133.487C305.416 134.361 303.467 135.07 301.062 135.07C298.657 135.07 296.708 134.361 296.708 133.487M305.416 133.487C305.416 132.613 303.467 131.904 301.062 131.904C298.657 131.904 296.708 132.613 296.708 133.487M305.416 133.487V139.424C305.416 140.299 303.467 141.008 301.062 141.008C298.657 141.008 296.708 140.299 296.708 139.424V133.487M305.416 136.456C305.416 137.33 303.467 138.039 301.062 138.039C298.657 138.039 296.708 137.33 296.708 136.456" stroke="#909090" stroke-width="1.5" stroke-linecap="round" stroke-linejoin="round"/>
<path d="M322.297 127.148V135.539H320.562V132.086H318.156V130.664H320.562V127.148H322.297ZM310.422 134.133C312.695 133.352 313.891 131.453 313.891 129.586V129.477H310.953V128.07H318.578V129.477H315.656V129.57C315.656 131.289 316.797 133.023 318.984 133.758L318.109 135.133C316.539 134.602 315.43 133.523 314.805 132.195C314.188 133.695 313.008 134.914 311.328 135.508L310.422 134.133ZM312.719 138.586C312.703 136.891 314.539 135.898 317.516 135.898C320.508 135.898 322.336 136.891 322.344 138.586C322.336 140.281 320.508 141.266 317.516 141.273C314.539 141.266 312.703 140.281 312.719 138.586ZM314.438 138.586C314.43 139.461 315.555 139.938 317.516 139.93C319.492 139.938 320.609 139.461 320.609 138.586C320.609 137.703 319.492 137.227 317.516 137.227C315.555 137.227 314.43 137.703 314.438 138.586ZM329.359 129.648C329.344 131.5 330.516 133.273 332.734 133.992L331.828 135.367C330.266 134.836 329.148 133.773 328.531 132.414C327.906 133.914 326.742 135.086 325.094 135.664L324.125 134.289C326.445 133.531 327.609 131.641 327.609 129.633V128.023H329.359V129.648ZM326.391 140.992V136.508H328.172V139.586H336V140.992H326.391ZM333.703 137.523V127.148H335.438V131.32H337.406V132.789H335.438V137.523H333.703Z" fill="#909090"/>
<line x1="196" y1="152" x2="265" y2="152" stroke="black" stroke-width="2" stroke-linecap="round"/>
<path d="M35.8337 183.637V180.708C35.8337 179.378 35.8337 178.713 35.5748 178.205C35.3471 177.758 34.9838 177.395 34.5369 177.167C34.0288 176.908 33.3638 176.908 32.0337 176.908H26.967C25.6369 176.908 24.9718 176.908 24.4638 177.167C24.0169 177.395 23.6536 177.758 23.4259 178.205C23.167 178.713 23.167 179.378 23.167 180.708V188.942C23.167 190.272 23.167 190.937 23.4259 191.445C23.6536 191.892 24.0169 192.255 24.4638 192.483C24.9718 192.742 25.6369 192.742 26.967 192.742H29.1045M37.417 192.742L36.2295 191.554M37.0212 189.575C37.0212 191.105 35.7806 192.346 34.2503 192.346C32.72 192.346 31.4795 191.105 31.4795 189.575C31.4795 188.045 32.72 186.804 34.2503 186.804C35.7806 186.804 37.0212 188.045 37.0212 189.575Z" stroke="#909090" stroke-width="1.5" stroke-linecap="round" stroke-linejoin="round"/>
<path d="M47.4375 182.574C47.4375 184.668 48.6172 186.949 50.7969 187.98L49.8281 189.293C48.2969 188.59 47.1953 187.184 46.6016 185.535C45.9844 187.316 44.8203 188.816 43.2031 189.543L42.25 188.199C44.4766 187.199 45.7188 184.793 45.7188 182.574V181.84H42.7031V180.449H45.7188V178.387H47.4531V180.449H50.4219V181.84H47.4375V182.574ZM51.7969 192.215V178.09H53.5312V183.684H55.7031V185.137H53.5312V192.215H51.7969ZM69.4219 180.105V181.543H67.4375V183.074H69.4219V184.527H67.4375V186.637H65.7031V178.105H67.4375V180.105H69.4219ZM56.8281 180.34V178.965H63.2812V183.027H58.5781V184.512C60.9688 184.496 62.625 184.41 64.5469 184.09L64.7344 185.48C62.6328 185.863 60.7891 185.941 58 185.934H56.8438V181.715H61.5781V180.34H56.8281ZM58.0469 189.574C58.0391 187.91 59.8672 186.91 62.8281 186.902C65.7422 186.91 67.5703 187.91 67.5781 189.574C67.5703 191.23 65.7422 192.184 62.8281 192.184C59.8672 192.184 58.0391 191.23 58.0469 189.574ZM59.75 189.574C59.7422 190.418 60.8516 190.879 62.8281 190.871C64.7734 190.879 65.8594 190.418 65.8594 189.574C65.8594 188.723 64.7734 188.262 62.8281 188.262C60.8516 188.262 59.7422 188.723 59.75 189.574ZM81.3594 178.668V183.574H77.4219V185.059H83V186.465H70.125V185.059H75.6719V183.574H71.75V178.668H81.3594ZM71.5469 189.027V187.652H81.4219V192.215H79.6875V189.027H71.5469ZM73.4375 182.199H79.6406V180.027H73.4375V182.199ZM96.8438 185.73V187.137H83.9375V185.73H89.5312V184.559H85.5781V180.809H93.5156V179.762H85.5312V178.402H95.25V182.074H87.2969V183.199H95.5312V184.559H91.25V185.73H96.8438ZM85.375 189.402V188.027H95.3281V192.121H93.5781V189.402H85.375Z" fill="#909090"/>
<path d="M135.125 184.824H131.642C131.198 184.824 130.977 184.824 130.807 184.911C130.658 184.986 130.537 185.108 130.461 185.256C130.375 185.426 130.375 185.648 130.375 186.091V190.683C130.375 191.126 130.375 191.348 130.461 191.517C130.537 191.666 130.658 191.787 130.807 191.863C130.977 191.949 131.198 191.949 131.642 191.949H135.125M135.125 191.949H139.875M135.125 191.949L135.125 182.133C135.125 181.689 135.125 181.467 135.211 181.298C135.287 181.149 135.408 181.028 135.557 180.952C135.727 180.866 135.948 180.866 136.392 180.866H138.608C139.052 180.866 139.273 180.866 139.443 180.952C139.592 181.028 139.713 181.149 139.789 181.298C139.875 181.467 139.875 181.689 139.875 182.133V191.949M139.875 191.949H143.358C143.802 191.949 144.023 191.949 144.193 191.863C144.342 191.787 144.463 191.666 144.539 191.517C144.625 191.348 144.625 191.126 144.625 190.683V178.966C144.625 178.523 144.625 178.301 144.539 178.131C144.463 177.983 144.342 177.861 144.193 177.786C144.023 177.699 143.802 177.699 143.358 177.699H141.142C140.698 177.699 140.477 177.699 140.307 177.786C140.158 177.861 140.037 177.983 139.961 178.131C139.875 178.301 139.875 178.523 139.875 178.966V181.658" stroke="#909090" stroke-width="1.5" stroke-linecap="round" stroke-linejoin="round"/>
<path d="M162.297 178.09V192.215H160.562V185.027H157.578V183.605H160.562V178.09H162.297ZM150.375 188.309C154.031 186.512 155.602 184.129 155.891 180.965H151.031V179.59H157.641C157.625 183.762 156.148 187.27 151.281 189.668L150.375 188.309ZM170.047 179.527V184.793H166.391V187.543C167.82 187.527 169.188 187.473 170.766 187.215L170.891 188.621C168.984 188.941 167.438 188.988 165.688 188.996H164.719V183.387H168.375V180.934H164.703V179.527H170.047ZM171.609 191.496V178.355H173.203V183.512H174.797V178.09H176.453V192.215H174.797V184.918H173.203V191.496H171.609Z" fill="#909090"/>
<path d="M224.398 180.581C224.289 180.424 224.143 180.297 223.974 180.209C223.804 180.12 223.616 180.074 223.425 180.074H220.469V178.293C220.468 177.978 220.343 177.676 220.121 177.454C219.898 177.231 219.596 177.106 219.281 177.105H209.781C209.466 177.106 209.165 177.231 208.942 177.454C208.719 177.676 208.594 177.978 208.594 178.293V190.465H210.564C210.668 191.048 210.974 191.575 211.428 191.955C211.882 192.335 212.455 192.543 213.047 192.543C213.639 192.543 214.212 192.335 214.666 191.955C215.12 191.575 215.426 191.048 215.53 190.465H219.47C219.574 191.048 219.88 191.575 220.334 191.955C220.788 192.335 221.361 192.543 221.953 192.543C222.545 192.543 223.118 192.335 223.572 191.955C224.026 191.575 224.332 191.048 224.436 190.465H226.406V183.73C226.407 183.547 226.35 183.369 226.245 183.22L224.398 180.581ZM209.781 178.293H219.281V184.824H209.781L209.781 178.293ZM213.047 191.355C212.783 191.355 212.524 191.277 212.305 191.13C212.085 190.984 211.914 190.775 211.813 190.531C211.712 190.287 211.685 190.018 211.737 189.759C211.788 189.5 211.915 189.262 212.102 189.075C212.289 188.888 212.527 188.761 212.786 188.709C213.045 188.658 213.314 188.684 213.558 188.785C213.802 188.886 214.011 189.058 214.158 189.277C214.304 189.497 214.383 189.755 214.383 190.02C214.382 190.374 214.242 190.713 213.991 190.964C213.741 191.214 213.401 191.355 213.047 191.355ZM221.953 191.355C221.689 191.355 221.431 191.277 221.211 191.13C220.991 190.984 220.82 190.775 220.719 190.531C220.618 190.287 220.591 190.018 220.643 189.759C220.694 189.5 220.822 189.262 221.009 189.075C221.195 188.888 221.433 188.761 221.693 188.709C221.952 188.658 222.22 188.684 222.464 188.785C222.708 188.886 222.917 189.058 223.064 189.277C223.211 189.497 223.289 189.755 223.289 190.02C223.289 190.374 223.148 190.713 222.897 190.964C222.647 191.214 222.307 191.355 221.953 191.355ZM225.219 189.277H224.365C224.206 188.761 223.886 188.31 223.452 187.99C223.018 187.669 222.493 187.496 221.953 187.496C221.413 187.496 220.888 187.669 220.454 187.99C220.02 188.31 219.7 188.761 219.541 189.277H215.459C215.3 188.761 214.98 188.31 214.546 187.99C214.112 187.669 213.587 187.496 213.047 187.496C212.507 187.496 211.982 187.669 211.548 187.99C211.114 188.31 210.794 188.761 210.635 189.277H209.781V186.012H225.219V189.277ZM225.219 184.824H220.469V181.262H223.425L225.219 183.824V184.824Z" fill="#909090"/>
<path d="M237.656 179.043V180.434H232.781V181.824H237.375V183.168H232.781V184.637C235.227 184.621 236.742 184.543 238.469 184.23L238.656 185.621C236.742 185.949 235.055 186.02 232.172 186.012H231.047V179.043H237.656ZM232.203 188.652V187.262H241.609V192.215H239.875V188.652H232.203ZM239.875 186.637V178.09H241.609V181.637H243.578V183.105H241.609V186.637H239.875ZM251.578 183.074V184.918H257.172V186.309H244.297V184.918H249.859V183.074H251.578ZM245 182.512C247.914 182.145 249.828 180.543 249.828 178.855V178.324H251.594V178.855C251.594 180.582 253.492 182.145 256.438 182.512L255.766 183.871C253.453 183.52 251.602 182.473 250.703 180.988C249.797 182.465 247.953 183.52 245.625 183.871L245 182.512ZM245.797 189.715C245.797 188.129 247.633 187.223 250.719 187.23C253.781 187.223 255.602 188.129 255.609 189.715C255.602 191.316 253.781 192.199 250.719 192.199C247.633 192.199 245.797 191.316 245.797 189.715ZM247.562 189.715C247.555 190.488 248.641 190.887 250.719 190.887C252.758 190.887 253.859 190.488 253.875 189.715C253.859 188.941 252.758 188.559 250.719 188.559C248.641 188.559 247.555 188.941 247.562 189.715Z" fill="#909090"/>
<path d="M298.291 179.283C298.291 180.157 296.342 180.866 293.937 180.866C291.532 180.866 289.583 180.157 289.583 179.283M298.291 179.283C298.291 178.408 296.342 177.699 293.937 177.699C291.532 177.699 289.583 178.408 289.583 179.283M298.291 179.283V180.47M289.583 179.283V188.783C289.583 189.657 291.532 190.366 293.937 190.366M293.937 184.033C293.804 184.033 293.672 184.03 293.541 184.026C291.322 183.953 289.583 183.275 289.583 182.449M293.937 187.199C291.532 187.199 289.583 186.49 289.583 185.616M305.416 184.428C305.416 185.303 303.467 186.012 301.062 186.012C298.657 186.012 296.708 185.303 296.708 184.428M305.416 184.428C305.416 183.554 303.467 182.845 301.062 182.845C298.657 182.845 296.708 183.554 296.708 184.428M305.416 184.428V190.366C305.416 191.24 303.467 191.949 301.062 191.949C298.657 191.949 296.708 191.24 296.708 190.366V184.428M305.416 187.397C305.416 188.272 303.467 188.98 301.062 188.98C298.657 188.98 296.708 188.272 296.708 187.397" stroke="black" stroke-width="1.5" stroke-linecap="round" stroke-linejoin="round"/>
<path d="M322.297 178.09V186.48H320.562V183.027H318.156V181.605H320.562V178.09H322.297ZM310.422 185.074C312.695 184.293 313.891 182.395 313.891 180.527V180.418H310.953V179.012H318.578V180.418H315.656V180.512C315.656 182.23 316.797 183.965 318.984 184.699L318.109 186.074C316.539 185.543 315.43 184.465 314.805 183.137C314.188 184.637 313.008 185.855 311.328 186.449L310.422 185.074ZM312.719 189.527C312.703 187.832 314.539 186.84 317.516 186.84C320.508 186.84 322.336 187.832 322.344 189.527C322.336 191.223 320.508 192.207 317.516 192.215C314.539 192.207 312.703 191.223 312.719 189.527ZM314.438 189.527C314.43 190.402 315.555 190.879 317.516 190.871C319.492 190.879 320.609 190.402 320.609 189.527C320.609 188.645 319.492 188.168 317.516 188.168C315.555 188.168 314.43 188.645 314.438 189.527ZM329.359 180.59C329.344 182.441 330.516 184.215 332.734 184.934L331.828 186.309C330.266 185.777 329.148 184.715 328.531 183.355C327.906 184.855 326.742 186.027 325.094 186.605L324.125 185.23C326.445 184.473 327.609 182.582 327.609 180.574V178.965H329.359V180.59ZM326.391 191.934V187.449H328.172V190.527H336V191.934H326.391ZM333.703 188.465V178.09H335.438V182.262H337.406V183.73H335.438V188.465H333.703Z" fill="black"/>
<line x1="279" y1="202.766" x2="348" y2="202.766" stroke="black" stroke-width="2" stroke-linecap="round"/>
<path d="M35.8337 234.579V231.65C35.8337 230.319 35.8337 229.654 35.5748 229.146C35.3471 228.699 34.9838 228.336 34.5369 228.108C34.0288 227.85 33.3638 227.85 32.0337 227.85H26.967C25.6369 227.85 24.9718 227.85 24.4638 228.108C24.0169 228.336 23.6536 228.699 23.4259 229.146C23.167 229.654 23.167 230.319 23.167 231.65V239.883C23.167 241.213 23.167 241.878 23.4259 242.386C23.6536 242.833 24.0169 243.196 24.4638 243.424C24.9718 243.683 25.6369 243.683 26.967 243.683H29.1045M37.417 243.683L36.2295 242.495M37.0212 240.516C37.0212 242.047 35.7806 243.287 34.2503 243.287C32.72 243.287 31.4795 242.047 31.4795 240.516C31.4795 238.986 32.72 237.745 34.2503 237.745C35.7806 237.745 37.0212 238.986 37.0212 240.516Z" stroke="#909090" stroke-width="1.5" stroke-linecap="round" stroke-linejoin="round"/>
<path d="M47.4375 233.516C47.4375 235.609 48.6172 237.891 50.7969 238.922L49.8281 240.234C48.2969 239.531 47.1953 238.125 46.6016 236.477C45.9844 238.258 44.8203 239.758 43.2031 240.484L42.25 239.141C44.4766 238.141 45.7188 235.734 45.7188 233.516V232.781H42.7031V231.391H45.7188V229.328H47.4531V231.391H50.4219V232.781H47.4375V233.516ZM51.7969 243.156V229.031H53.5312V234.625H55.7031V236.078H53.5312V243.156H51.7969ZM69.4219 231.047V232.484H67.4375V234.016H69.4219V235.469H67.4375V237.578H65.7031V229.047H67.4375V231.047H69.4219ZM56.8281 231.281V229.906H63.2812V233.969H58.5781V235.453C60.9688 235.438 62.625 235.352 64.5469 235.031L64.7344 236.422C62.6328 236.805 60.7891 236.883 58 236.875H56.8438V232.656H61.5781V231.281H56.8281ZM58.0469 240.516C58.0391 238.852 59.8672 237.852 62.8281 237.844C65.7422 237.852 67.5703 238.852 67.5781 240.516C67.5703 242.172 65.7422 243.125 62.8281 243.125C59.8672 243.125 58.0391 242.172 58.0469 240.516ZM59.75 240.516C59.7422 241.359 60.8516 241.82 62.8281 241.812C64.7734 241.82 65.8594 241.359 65.8594 240.516C65.8594 239.664 64.7734 239.203 62.8281 239.203C60.8516 239.203 59.7422 239.664 59.75 240.516ZM81.3594 229.609V234.516H77.4219V236H83V237.406H70.125V236H75.6719V234.516H71.75V229.609H81.3594ZM71.5469 239.969V238.594H81.4219V243.156H79.6875V239.969H71.5469ZM73.4375 233.141H79.6406V230.969H73.4375V233.141ZM96.8438 236.672V238.078H83.9375V236.672H89.5312V235.5H85.5781V231.75H93.5156V230.703H85.5312V229.344H95.25V233.016H87.2969V234.141H95.5312V235.5H91.25V236.672H96.8438ZM85.375 240.344V238.969H95.3281V243.062H93.5781V240.344H85.375Z" fill="#909090"/>
<path d="M135.125 235.766H131.642C131.198 235.766 130.977 235.766 130.807 235.852C130.658 235.928 130.537 236.049 130.461 236.198C130.375 236.367 130.375 236.589 130.375 237.032V241.624C130.375 242.067 130.375 242.289 130.461 242.458C130.537 242.607 130.658 242.728 130.807 242.804C130.977 242.891 131.198 242.891 131.642 242.891H135.125M135.125 242.891H139.875M135.125 242.891L135.125 233.074C135.125 232.631 135.125 232.409 135.211 232.24C135.287 232.091 135.408 231.969 135.557 231.894C135.727 231.807 135.948 231.807 136.392 231.807H138.608C139.052 231.807 139.273 231.807 139.443 231.894C139.592 231.969 139.713 232.091 139.789 232.24C139.875 232.409 139.875 232.631 139.875 233.074V242.891M139.875 242.891H143.358C143.802 242.891 144.023 242.891 144.193 242.804C144.342 242.728 144.463 242.607 144.539 242.458C144.625 242.289 144.625 242.067 144.625 241.624V229.907C144.625 229.464 144.625 229.242 144.539 229.073C144.463 228.924 144.342 228.803 144.193 228.727C144.023 228.641 143.802 228.641 143.358 228.641H141.142C140.698 228.641 140.477 228.641 140.307 228.727C140.158 228.803 140.037 228.924 139.961 229.073C139.875 229.242 139.875 229.464 139.875 229.907V232.599" stroke="#909090" stroke-width="1.5" stroke-linecap="round" stroke-linejoin="round"/>
<path d="M162.297 229.031V243.156H160.562V235.969H157.578V234.547H160.562V229.031H162.297ZM150.375 239.25C154.031 237.453 155.602 235.07 155.891 231.906H151.031V230.531H157.641C157.625 234.703 156.148 238.211 151.281 240.609L150.375 239.25ZM170.047 230.469V235.734H166.391V238.484C167.82 238.469 169.188 238.414 170.766 238.156L170.891 239.562C168.984 239.883 167.438 239.93 165.688 239.938H164.719V234.328H168.375V231.875H164.703V230.469H170.047ZM171.609 242.438V229.297H173.203V234.453H174.797V229.031H176.453V243.156H174.797V235.859H173.203V242.438H171.609Z" fill="#909090"/>
<path d="M224.398 231.522C224.289 231.366 224.143 231.238 223.974 231.15C223.804 231.062 223.616 231.016 223.425 231.016H220.469V229.234C220.468 228.92 220.343 228.618 220.121 228.395C219.898 228.172 219.596 228.047 219.281 228.047H209.781C209.466 228.047 209.165 228.172 208.942 228.395C208.719 228.618 208.594 228.92 208.594 229.234V241.406H210.564C210.668 241.989 210.974 242.516 211.428 242.896C211.882 243.276 212.455 243.484 213.047 243.484C213.639 243.484 214.212 243.276 214.666 242.896C215.12 242.516 215.426 241.989 215.53 241.406H219.47C219.574 241.989 219.88 242.516 220.334 242.896C220.788 243.276 221.361 243.484 221.953 243.484C222.545 243.484 223.118 243.276 223.572 242.896C224.026 242.516 224.332 241.989 224.436 241.406H226.406V234.672C226.407 234.489 226.35 234.311 226.245 234.161L224.398 231.522ZM209.781 229.234H219.281V235.766H209.781L209.781 229.234ZM213.047 242.297C212.783 242.297 212.524 242.219 212.305 242.072C212.085 241.925 211.914 241.716 211.813 241.472C211.712 241.228 211.685 240.959 211.737 240.7C211.788 240.441 211.915 240.203 212.102 240.016C212.289 239.829 212.527 239.702 212.786 239.651C213.045 239.599 213.314 239.626 213.558 239.727C213.802 239.828 214.011 239.999 214.158 240.219C214.304 240.438 214.383 240.697 214.383 240.961C214.382 241.315 214.242 241.655 213.991 241.905C213.741 242.156 213.401 242.296 213.047 242.297ZM221.953 242.297C221.689 242.297 221.431 242.219 221.211 242.072C220.991 241.925 220.82 241.716 220.719 241.472C220.618 241.228 220.591 240.959 220.643 240.7C220.694 240.441 220.822 240.203 221.009 240.016C221.195 239.829 221.433 239.702 221.693 239.651C221.952 239.599 222.22 239.626 222.464 239.727C222.708 239.828 222.917 239.999 223.064 240.219C223.211 240.438 223.289 240.697 223.289 240.961C223.289 241.315 223.148 241.655 222.897 241.905C222.647 242.156 222.307 242.296 221.953 242.297ZM225.219 240.219H224.365C224.206 239.703 223.886 239.252 223.452 238.931C223.018 238.61 222.493 238.437 221.953 238.437C221.413 238.437 220.888 238.61 220.454 238.931C220.02 239.252 219.7 239.703 219.541 240.219H215.459C215.3 239.703 214.98 239.252 214.546 238.931C214.112 238.61 213.587 238.437 213.047 238.437C212.507 238.437 211.982 238.61 211.548 238.931C211.114 239.252 210.794 239.703 210.635 240.219H209.781V236.953H225.219V240.219ZM225.219 235.766H220.469V232.203H223.425L225.219 234.765V235.766Z" fill="#909090"/>
<path d="M237.656 229.984V231.375H232.781V232.766H237.375V234.109H232.781V235.578C235.227 235.562 236.742 235.484 238.469 235.172L238.656 236.562C236.742 236.891 235.055 236.961 232.172 236.953H231.047V229.984H237.656ZM232.203 239.594V238.203H241.609V243.156H239.875V239.594H232.203ZM239.875 237.578V229.031H241.609V232.578H243.578V234.047H241.609V237.578H239.875ZM251.578 234.016V235.859H257.172V237.25H244.297V235.859H249.859V234.016H251.578ZM245 233.453C247.914 233.086 249.828 231.484 249.828 229.797V229.266H251.594V229.797C251.594 231.523 253.492 233.086 256.438 233.453L255.766 234.812C253.453 234.461 251.602 233.414 250.703 231.93C249.797 233.406 247.953 234.461 245.625 234.812L245 233.453ZM245.797 240.656C245.797 239.07 247.633 238.164 250.719 238.172C253.781 238.164 255.602 239.07 255.609 240.656C255.602 242.258 253.781 243.141 250.719 243.141C247.633 243.141 245.797 242.258 245.797 240.656ZM247.562 240.656C247.555 241.43 248.641 241.828 250.719 241.828C252.758 241.828 253.859 241.43 253.875 240.656C253.859 239.883 252.758 239.5 250.719 239.5C248.641 239.5 247.555 239.883 247.562 240.656Z" fill="#909090"/>
<path d="M298.291 230.224C298.291 231.098 296.342 231.807 293.937 231.807C291.532 231.807 289.583 231.098 289.583 230.224M298.291 230.224C298.291 229.35 296.342 228.641 293.937 228.641C291.532 228.641 289.583 229.35 289.583 230.224M298.291 230.224V231.411M289.583 230.224V239.724C289.583 240.598 291.532 241.307 293.937 241.307M293.937 234.974C293.804 234.974 293.672 234.972 293.541 234.968C291.322 234.895 289.583 234.217 289.583 233.391M293.937 238.141C291.532 238.141 289.583 237.432 289.583 236.557M305.416 235.37C305.416 236.244 303.467 236.953 301.062 236.953C298.657 236.953 296.708 236.244 296.708 235.37M305.416 235.37C305.416 234.495 303.467 233.786 301.062 233.786C298.657 233.786 296.708 234.495 296.708 235.37M305.416 235.37V241.307C305.416 242.182 303.467 242.891 301.062 242.891C298.657 242.891 296.708 242.182 296.708 241.307V235.37M305.416 238.339C305.416 239.213 303.467 239.922 301.062 239.922C298.657 239.922 296.708 239.213 296.708 238.339" stroke="#909090" stroke-width="1.5" stroke-linecap="round" stroke-linejoin="round"/>
<path d="M322.297 229.031V237.422H320.562V233.969H318.156V232.547H320.562V229.031H322.297ZM310.422 236.016C312.695 235.234 313.891 233.336 313.891 231.469V231.359H310.953V229.953H318.578V231.359H315.656V231.453C315.656 233.172 316.797 234.906 318.984 235.641L318.109 237.016C316.539 236.484 315.43 235.406 314.805 234.078C314.188 235.578 313.008 236.797 311.328 237.391L310.422 236.016ZM312.719 240.469C312.703 238.773 314.539 237.781 317.516 237.781C320.508 237.781 322.336 238.773 322.344 240.469C322.336 242.164 320.508 243.148 317.516 243.156C314.539 243.148 312.703 242.164 312.719 240.469ZM314.438 240.469C314.43 241.344 315.555 241.82 317.516 241.812C319.492 241.82 320.609 241.344 320.609 240.469C320.609 239.586 319.492 239.109 317.516 239.109C315.555 239.109 314.43 239.586 314.438 240.469ZM329.359 231.531C329.344 233.383 330.516 235.156 332.734 235.875L331.828 237.25C330.266 236.719 329.148 235.656 328.531 234.297C327.906 235.797 326.742 236.969 325.094 237.547L324.125 236.172C326.445 235.414 327.609 233.523 327.609 231.516V229.906H329.359V231.531ZM326.391 242.875V238.391H328.172V241.469H336V242.875H326.391ZM333.703 239.406V229.031H335.438V233.203H337.406V234.672H335.438V239.406H333.703Z" fill="#909090"/>
<line x1="21" y1="253.707" x2="100.049" y2="253.707" stroke="#909090" stroke-width="2" stroke-linecap="round"/>
</svg>
